<svg xmlns="http://www.w3.org/2000/svg" width="13.441" height="21.372" viewBox="0 0 13.441 21.372"><defs><style>.a{fill:#939fa2;}</style></defs><g transform="translate(-94.999)"><path class="a" d="M107.73,12.063h-1.146a1.734,1.734,0,0,0,.071-.182c0-.013-.074.251,1.673-5.686a1.733,1.733,0,0,0-.549-2.016L103.135.406a2.671,2.671,0,0,0-2.831,0L95.66,4.18A1.733,1.733,0,0,0,95.11,6.2c1.786,6.072,1.667,5.7,1.744,5.868H95.72a.628.628,0,0,0-.639.652c0,.535,0-.69,0,1.643a2.021,2.021,0,0,0,1.21,1.761,4.948,4.948,0,0,0,1.985.52l-.844,3.976a.626.626,0,0,0,1.225.26l.9-4.221h4.327l.881,4.217a.626.626,0,1,0,1.226-.256l-.831-3.976a4.951,4.951,0,0,0,1.988-.52,2.021,2.021,0,0,0,1.21-1.761v-1.67A.626.626,0,0,0,107.73,12.063ZM97.976,11.5C96.2,5.466,96.309,5.832,96.3,5.817c-.147-.452.037-.585.106-.636.019-.014,4.705-3.821,4.729-3.842a1.975,1.975,0,0,1,1.16,0c.023.021,4.709,3.828,4.729,3.842.069.05.253.184.106.636,0,.013.074-.254-1.672,5.683a.98.98,0,0,1-.738.563H98.714A.98.98,0,0,1,97.976,11.5Zm9.128,2.858c0,.5-.956,1.044-2.379,1.044H98.714c-1.423,0-2.379-.54-2.379-1.044,0-.465,0-.8,0-1.044H107.1Z" transform="translate(0 0)"/></g></svg>