<svg xmlns="http://www.w3.org/2000/svg" width="26.5" height="26.5" viewBox="0 0 26.5 26.5"><defs><style>.a{fill:#fff;stroke:#fff;stroke-width:0.5px;}</style></defs><g transform="translate(0.25 0.25)"><path class="a" d="M254.125,240l-1.949-.86.328-.743,1.205.532.531-1.205.744.327Zm0,0" transform="translate(-239.37 -225.647)"/><path class="a" d="M109.263,295.733l-.744-.327.86-1.949,1.949.859-.328.743-1.205-.532Zm0,0" transform="translate(-103.009 -278.555)"/><path class="a" d="M129.731,203.69a3.656,3.656,0,0,0-7.165,0l-.8-.163a4.469,4.469,0,0,1,8.758,0Zm0,0" transform="translate(-115.586 -189.796)"/><path class="a" d="M126.148,306.136a4.481,4.481,0,0,1-4.379-3.575l.8-.163a3.656,3.656,0,0,0,7.165,0l.8.163A4.481,4.481,0,0,1,126.148,306.136Zm0,0" transform="translate(-115.586 -287.042)"/><path class="a" d="M80.813,178.438H80V176h2.438v.813H80.813Zm0,0" transform="translate(-75.938 -167.063)"/><path class="a" d="M32,432h2.438v.813H32Zm0,0" transform="translate(-30.375 -410.063)"/><path class="a" d="M8.938,0V2.438H6.5V4.875H4.063V7.313H2.438v13H0v3.25A2.44,2.44,0,0,0,2.438,26H16.25a2.44,2.44,0,0,0,2.438-2.437V7.313H4.875V5.688H20.313V20.313h.813V4.875H7.313V3.25H22.75V17.875h.813V2.438H9.75V.813H25.188V15.437H26V0Zm-6.5,25.188A1.625,1.625,0,0,1,.813,23.563V21.125h13v2.438a2.43,2.43,0,0,0,.622,1.625ZM17.875,8.125V23.563a1.625,1.625,0,0,1-3.25,0v-3.25H3.25V8.125Zm0,0"/><path class="a" d="M496,336h.813v2.438H496Zm0,0" transform="translate(-470.813 -318.938)"/><path class="a" d="M448,384h.813v2.438H448Zm0,0" transform="translate(-425.25 -364.5)"/><path class="a" d="M400,432h.813v2.438H400Zm0,0" transform="translate(-379.688 -410.063)"/></g></svg>