<svg xmlns="http://www.w3.org/2000/svg" width="26.512" height="26.5" viewBox="0 0 26.512 26.5"><defs><style>.a{fill:#fff;stroke:#fff;stroke-width:0.5px;}</style></defs><g transform="translate(0.25 0.25)"><path class="a" d="M13,0H7.366a.433.433,0,0,0-.433.433V3.466H.433A.433.433,0,0,0,0,3.9V25.565A.433.433,0,0,0,.433,26H13a.433.433,0,0,0,.433-.433V.433A.433.433,0,0,0,13,0Zm-.433,22.532H7.8v-.867h4.766ZM.867,6.5H6.933v13H.867Zm11.7-1.733H7.8v-1.3h4.766Zm-11.7,15.6H6.933v1.3H.867ZM7.8,20.8V5.633h4.766V20.8ZM12.566.867V2.6H7.8V.867ZM6.933,4.333v1.3H.867v-1.3ZM.867,22.532H6.933v2.6H.867Zm6.933,2.6V23.4h4.766v1.733Zm0,0"/><path class="a" d="M260.55,84.257l-5.2-19.932a.433.433,0,0,0-.531-.309l-6.5,1.733a.433.433,0,0,0-.308.528l5.2,19.932a.432.432,0,0,0,.531.308l6.5-1.733A.433.433,0,0,0,260.55,84.257Zm-10.9-15.136,5.662-1.51.2.78L249.853,69.9Zm6.085.111,2.513,9.64-5.66,1.51-2.513-9.641Zm2.734,10.479.444,1.7-5.662,1.51-.442-1.7Zm-3.847-14.747.472,1.809-5.662,1.509-.471-1.808Zm-.681,20.6-.472-1.809,5.662-1.51.471,1.808Zm0,0" transform="translate(-234.565 -60.535)"/><path class="a" d="M35.9,144H32.433a.433.433,0,0,0-.433.433V147.9a.433.433,0,0,0,.433.433H35.9a.433.433,0,0,0,.433-.433v-3.466A.433.433,0,0,0,35.9,144Zm-.433,3.467h-2.6v-2.6h2.6Zm0,0" transform="translate(-30.267 -136.2)"/></g></svg>