<svg xmlns="http://www.w3.org/2000/svg" width="23.273" height="21" viewBox="0 0 23.273 21"><defs><style>.a{fill:#939fa2;}</style></defs><g transform="translate(0 -25)"><path class="a" d="M99.136,249H97.682a.682.682,0,1,0,0,1.364h1.455a.682.682,0,1,0,0-1.364Z" transform="translate(-92.591 -213.818)"/><path class="a" d="M99.136,313H97.682a.682.682,0,1,0,0,1.364h1.455a.682.682,0,1,0,0-1.364Z" transform="translate(-92.591 -274.909)"/><path class="a" d="M99.136,377H97.682a.682.682,0,0,0,0,1.364h1.455a.682.682,0,0,0,0-1.364Z" transform="translate(-92.591 -336)"/><path class="a" d="M227.136,249h-1.455a.682.682,0,1,0,0,1.364h1.455a.682.682,0,0,0,0-1.364Z" transform="translate(-214.773 -213.818)"/><path class="a" d="M227.136,313h-1.455a.682.682,0,1,0,0,1.364h1.455a.682.682,0,1,0,0-1.364Z" transform="translate(-214.773 -274.909)"/><path class="a" d="M227.136,377h-1.455a.682.682,0,0,0,0,1.364h1.455a.682.682,0,0,0,0-1.364Z" transform="translate(-214.773 -336)"/><path class="a" d="M355.136,249h-1.455a.682.682,0,1,0,0,1.364h1.455a.682.682,0,1,0,0-1.364Z" transform="translate(-336.955 -213.818)"/><path class="a" d="M355.136,313h-1.455a.682.682,0,1,0,0,1.364h1.455a.682.682,0,1,0,0-1.364Z" transform="translate(-336.955 -274.909)"/><path class="a" d="M355.136,377h-1.455a.682.682,0,0,0,0,1.364h1.455a.682.682,0,0,0,0-1.364Z" transform="translate(-336.955 -336)"/><path class="a" d="M21.227,26.818H19.591V25.682a.682.682,0,1,0-1.364,0v1.136H12.318V25.682a.682.682,0,0,0-1.364,0v1.136H5.045V25.682a.682.682,0,0,0-1.364,0v1.136H2.045A2.048,2.048,0,0,0,0,28.864V43.955A2.048,2.048,0,0,0,2.045,46H21.227a2.048,2.048,0,0,0,2.045-2.045V28.864A2.048,2.048,0,0,0,21.227,26.818ZM1.364,28.864a.683.683,0,0,1,.682-.682H3.682v1.136a.682.682,0,1,0,1.364,0V28.182h5.909v1.136a.682.682,0,1,0,1.364,0V28.182h5.909v1.136a.682.682,0,1,0,1.364,0V28.182h1.636a.683.683,0,0,1,.682.682v2.682H1.364ZM21.227,44.636H2.045a.683.683,0,0,1-.682-.682V32.909H21.909V43.955A.683.683,0,0,1,21.227,44.636Z"/></g></svg>