<svg xmlns="http://www.w3.org/2000/svg" width="83.104" height="52.766" viewBox="0 0 83.104 52.766"><defs><style>.a{fill:#fff;}</style></defs><g transform="translate(0 -92.25)"><g transform="translate(0 92.25)"><path class="a" d="M71.873,115.468a9.488,9.488,0,1,0-10.885,0,16.439,16.439,0,0,0-5.607,3.289,21.272,21.272,0,0,0-7.7-4.193,12.02,12.02,0,1,0-12.431,0,21.449,21.449,0,0,0-7.613,4.144,16.572,16.572,0,0,0-5.541-3.223,9.488,9.488,0,1,0-10.885,0A16.654,16.654,0,0,0,0,131.22v1.085a.071.071,0,0,0,.066.066h20.11A22.116,22.116,0,0,0,20,135.15v1.118a8.744,8.744,0,0,0,8.748,8.748H54.23a8.744,8.744,0,0,0,8.748-8.748V135.15a22.116,22.116,0,0,0-.181-2.779H83.038a.071.071,0,0,0,.066-.066V131.22A16.718,16.718,0,0,0,71.873,115.468Zm-12.3-7.778a6.857,6.857,0,1,1,6.988,6.857H66.3A6.847,6.847,0,0,1,59.574,107.69Zm-27.526-3.42a9.389,9.389,0,1,1,9.932,9.373H40.894A9.4,9.4,0,0,1,32.048,104.27Zm-22.3,3.42a6.857,6.857,0,1,1,6.988,6.857h-.263A6.858,6.858,0,0,1,9.751,107.69Zm10.885,22.034H2.664a14.05,14.05,0,0,1,13.845-12.546h.2a13.9,13.9,0,0,1,8.962,3.338A21.59,21.59,0,0,0,20.636,129.724Zm39.678,6.544a6.126,6.126,0,0,1-6.117,6.117H28.71a6.126,6.126,0,0,1-6.117-6.117V135.15a18.888,18.888,0,0,1,18.3-18.86c.181.016.378.016.559.016s.378,0,.559-.016a18.888,18.888,0,0,1,18.3,18.86Zm1.957-6.544a21.533,21.533,0,0,0-4.982-9.142,13.971,13.971,0,0,1,9.044-3.4h.2a14.05,14.05,0,0,1,13.845,12.546Z" transform="translate(0 -92.25)"/></g></g></svg>