<svg xmlns="http://www.w3.org/2000/svg" width="22.999" height="22.922" viewBox="0 0 22.999 22.922"><defs><style>.a{fill:#fff;}</style></defs><g transform="translate(0 -0.85)"><g transform="translate(0 0.85)"><path class="a" d="M11.461,21.862h-8.6a.955.955,0,0,1-.955-.955V3.715a.955.955,0,0,1,.955-.955h8.6a.955.955,0,0,0,0-1.91h-8.6A2.869,2.869,0,0,0,0,3.715V20.907a2.869,2.869,0,0,0,2.865,2.865h8.6a.955.955,0,1,0,0-1.91Z" transform="translate(0 -0.85)"/></g><g transform="translate(7.641 5.626)"><path class="a" d="M185.173,113.17l-5.807-5.731a.955.955,0,1,0-1.341,1.36l4.15,4.1h-11.12a.955.955,0,0,0,0,1.91h11.12l-4.15,4.1a.955.955,0,1,0,1.341,1.36l5.807-5.731a.955.955,0,0,0,0-1.36Z" transform="translate(-170.1 -107.165)"/></g></g></svg>