<svg xmlns="http://www.w3.org/2000/svg" width="29.57" height="20.792" viewBox="0 0 29.57 20.792"><g transform="translate(-298 -80)"><g transform="translate(298 89.241)"><g transform="translate(0 0)"><path d="M28.415,236H1.155a1.155,1.155,0,1,0,0,2.31h27.26a1.155,1.155,0,1,0,0-2.31Z" transform="translate(0 -236)"/></g></g><g transform="translate(0 76)"><g transform="translate(0 0)"><path d="M28.415,76H1.155a1.155,1.155,0,1,0,0,2.31h27.26a1.155,1.155,0,1,0,0-2.31Z" transform="translate(298 -72)"/></g></g><g transform="translate(298 98.481)"><path d="M28.415,396H1.155a1.155,1.155,0,1,0,0,2.31h27.26a1.155,1.155,0,1,0,0-2.31Z" transform="translate(0 -396)"/></g></g></svg>