<svg xmlns="http://www.w3.org/2000/svg" width="63.001" height="63" viewBox="0 0 63.001 63"><defs><style>.a{fill:#fff;}</style></defs><g transform="translate(-16 -16)"><path class="a" d="M60.1,226.25h-1.05v-10.5h-2.1v10.5H21.25v-21h0v-2.1a2.1,2.1,0,0,0-2.1,2.1v21H18.1v-21a3.154,3.154,0,0,1,3.15-3.15V200A5.256,5.256,0,0,0,16,205.25V227.3a5.256,5.256,0,0,0,5.25,5.25H34.9v1.05a3.154,3.154,0,0,1-3.15,3.15,1.05,1.05,0,1,0,0,2.1h14.7a1.05,1.05,0,1,0,0-2.1,3.154,3.154,0,0,1-3.15-3.15v-1.05h13.65a5.256,5.256,0,0,0,5.25-5.25V215.75H60.1Zm-17.848,10.5h-6.3A5.224,5.224,0,0,0,37,233.6v-1.05h4.2v1.05A5.224,5.224,0,0,0,42.253,236.75Zm14.7-6.3H21.25a3.155,3.155,0,0,1-2.969-2.1H59.92a3.155,3.155,0,0,1-2.969,2.1Z" transform="translate(0 -159.849)"/><path class="a" d="M270.45,16h-27.3A3.154,3.154,0,0,0,240,19.15v23.1a3.154,3.154,0,0,0,3.15,3.15h27.3a3.154,3.154,0,0,0,3.15-3.15V19.15A3.154,3.154,0,0,0,270.45,16Zm1.05,26.25a1.051,1.051,0,0,1-1.05,1.05h-27.3a1.051,1.051,0,0,1-1.05-1.05V19.15a1.051,1.051,0,0,1,1.05-1.05h27.3a1.051,1.051,0,0,1,1.05,1.05Z" transform="translate(-194.599 0)"/><path class="a" d="M272,64h25.2v2.1H272Z" transform="translate(-222.399 -41.7)"/><circle class="a" cx="0.969" cy="0.969" r="0.969" transform="translate(49.439 19.393)"/><ellipse class="a" cx="1.454" cy="0.969" rx="1.454" ry="0.969" transform="translate(52.347 19.393)"/><circle class="a" cx="0.969" cy="0.969" r="0.969" transform="translate(56.224 19.393)"/><path class="a" d="M282.5,96h-9.45A1.05,1.05,0,0,0,272,97.05v9.45a1.05,1.05,0,0,0,1.05,1.05h9.45a1.05,1.05,0,0,0,1.05-1.05V97.05A1.05,1.05,0,0,0,282.5,96Zm-1.05,9.45H274.1V98.1h7.35Z" transform="translate(-222.399 -69.5)"/><path class="a" d="M386.5,96h-9.45A1.05,1.05,0,0,0,376,97.05v9.45a1.05,1.05,0,0,0,1.05,1.05h9.45a1.05,1.05,0,0,0,1.05-1.05V97.05A1.05,1.05,0,0,0,386.5,96Zm-1.05,9.45H378.1V98.1h7.35Z" transform="translate(-312.749 -69.5)"/><path class="a" d="M288,192h4.2v2.1H288Z" transform="translate(-236.299 -152.9)"/><path class="a" d="M328,192h2.1v2.1H328Z" transform="translate(-271.049 -152.9)"/><path class="a" d="M392,192h4.2v2.1H392Z" transform="translate(-326.649 -152.9)"/><path class="a" d="M432,192h2.1v2.1H432Z" transform="translate(-361.399 -152.9)"/><path class="a" d="M183.5,106.25a1.051,1.051,0,0,1-1.05,1.05h-27.3a1.051,1.051,0,0,1-1.05-1.05V83.15a1.051,1.051,0,0,1,1.05-1.05h6.3V80h-6.3A3.154,3.154,0,0,0,152,83.15v23.1a3.154,3.154,0,0,0,3.15,3.15h27.3a3.154,3.154,0,0,0,3.15-3.15V103.1h-2.1Z" transform="translate(-118.149 -55.6)"/><path class="a" d="M184,128h5.25v2.1H184Z" transform="translate(-145.949 -97.3)"/><ellipse class="a" cx="0.969" cy="1.454" rx="0.969" ry="1.454" transform="translate(37.809 27.147)"/><ellipse class="a" cx="0.969" cy="1.454" rx="0.969" ry="1.454" transform="translate(41.686 27.147)"/><path class="a" d="M67.15,189.4h27.3a3.154,3.154,0,0,0,3.15-3.15V181H95.5v5.25a1.051,1.051,0,0,1-1.05,1.05H67.15a1.051,1.051,0,0,1-1.05-1.05v-23.1a1.051,1.051,0,0,1,1.05-1.05h6.3V160h-6.3A3.154,3.154,0,0,0,64,163.15v23.1A3.154,3.154,0,0,0,67.15,189.4Z" transform="translate(-41.7 -125.1)"/><path class="a" d="M96,208h5.25v2.1H96Z" transform="translate(-69.499 -166.8)"/><ellipse class="a" cx="1.454" cy="0.969" rx="1.454" ry="0.969" transform="translate(26.178 37.808)"/><circle class="a" cx="0.969" cy="0.969" r="0.969" transform="translate(30.055 37.808)"/></g></svg>