<svg xmlns="http://www.w3.org/2000/svg" width="72.509" height="64.012" viewBox="0 0 72.509 64.012"><defs><style>.a{fill:#fff;}</style></defs><g transform="translate(0 -29.999)"><ellipse class="a" cx="0.437" cy="0.874" rx="0.437" ry="0.874" transform="translate(51.979 57.636)"/><ellipse class="a" cx="0.437" cy="1.31" rx="0.437" ry="1.31" transform="translate(51.979 62.004)"/><ellipse class="a" cx="0.437" cy="0.874" rx="0.437" ry="0.874" transform="translate(19.656 57.636)"/><ellipse class="a" cx="0.437" cy="1.31" rx="0.437" ry="1.31" transform="translate(19.656 62.004)"/><path class="a" d="M210.935,377a7.435,7.435,0,1,0,7.435,7.435A7.443,7.443,0,0,0,210.935,377Zm0,12.746a5.311,5.311,0,1,1,5.311-5.311A5.317,5.317,0,0,1,210.935,389.745Z" transform="translate(-174.681 -297.858)"/><path class="a" d="M344.614,141.061a1.062,1.062,0,1,0-2.124,0,9.571,9.571,0,0,1-8.658,9.516,3.9,3.9,0,0,0-3.734-2.789h-7.081a3.9,3.9,0,0,0-3.895,3.895v7.4A9.547,9.547,0,0,0,317,165.089v2.88a1.062,1.062,0,0,0,1.062,1.062h3.186v16.158l-3.522,1.174a1.062,1.062,0,1,0,.672,2.015l4.249-1.416a1.062,1.062,0,0,0,.726-1.008V169.031h6.373v5.311a3.193,3.193,0,0,0,.717,2.013l5.656,6.933v4.083a1.062,1.062,0,0,0,2.124,0V182.91a1.063,1.063,0,0,0-.239-.671l-5.9-7.226a1.049,1.049,0,0,1-.239-.67v-5.311h3.186a1.062,1.062,0,0,0,1.062-1.062v-2.88a9.547,9.547,0,0,0-2.124-6.006v-6.389A11.7,11.7,0,0,0,344.614,141.061Zm-10.621,25.845h-14.87v-1.818a7.425,7.425,0,0,1,1.859-4.915,1.062,1.062,0,0,0,.266-.7v-7.789a1.772,1.772,0,0,1,1.77-1.77H330.1a1.772,1.772,0,0,1,1.77,1.77v7.789a1.062,1.062,0,0,0,.266.7,7.425,7.425,0,0,1,1.859,4.915Z" transform="translate(-272.105 -94.422)"/><path class="a" d="M321.661,55.066a7.435,7.435,0,1,0,12.894,0,3.895,3.895,0,1,0-4.924-3.581,7.444,7.444,0,0,0-3.046,0,3.895,3.895,0,1,0-4.924,3.581Zm6.447,9.007a5.312,5.312,0,0,1-5.2-6.373h10.408a5.312,5.312,0,0,1-5.2,6.373Zm3.978-13.8a1.77,1.77,0,1,1,.392,2.473A1.769,1.769,0,0,1,332.086,50.275Zm.267,5.3h-8.491a5.3,5.3,0,0,1,8.491,0Zm-10.7-5.693a1.77,1.77,0,1,1-.392,2.473A1.76,1.76,0,0,1,321.657,49.883Z" transform="translate(-273.655 -14.956)"/><path class="a" d="M82.435,51.242a7.443,7.443,0,0,0,7.435-7.435V37.434a3.9,3.9,0,0,0-2.208-3.508,8.549,8.549,0,0,0-4.924-3.883,1.063,1.063,0,0,0-.606,0,8.549,8.549,0,0,0-4.924,3.883A3.9,3.9,0,0,0,75,37.434v6.373A7.443,7.443,0,0,0,82.435,51.242ZM77.124,37.434a1.771,1.771,0,0,1,1.186-1.669,1.061,1.061,0,0,0,.591-.512,6.419,6.419,0,0,1,3.533-3.075,6.418,6.418,0,0,1,3.533,3.075,1.063,1.063,0,0,0,.591.512,1.771,1.771,0,0,1,1.186,1.669V38.61a7.418,7.418,0,0,0-10.621,0ZM82.435,38.5a5.311,5.311,0,1,1-5.311,5.311A5.317,5.317,0,0,1,82.435,38.5Z" transform="translate(-64.379 0)"/><path class="a" d="M26.889,186.363l-3.522-1.174v-18.4a7.409,7.409,0,0,0,2.124-5.2v-9.913a3.9,3.9,0,0,0-3.895-3.895H14.516a3.9,3.9,0,0,0-3.734,2.789,9.572,9.572,0,0,1-8.658-9.516,1.062,1.062,0,1,0-2.124,0,11.7,11.7,0,0,0,10.621,11.633v8.9a7.409,7.409,0,0,0,2.124,5.2v7.549a1.049,1.049,0,0,1-.239.67l-5.895,7.226a1.062,1.062,0,0,0-.239.671v4.461a1.062,1.062,0,1,0,2.124,0v-4.083l5.656-6.933a3.193,3.193,0,0,0,.717-2.013v-6.03a7.422,7.422,0,0,0,6.373,0v17.642a1.062,1.062,0,0,0,.726,1.008l4.249,1.416a1.062,1.062,0,0,0,.672-2.015ZM14.516,149.912H21.6a1.772,1.772,0,0,1,1.77,1.77v8.851H12.746v-8.851A1.772,1.772,0,0,1,14.516,149.912Zm-1.663,12.746H23.26a5.311,5.311,0,0,1-10.408,0Z" transform="translate(0 -94.422)"/></g></svg>