<svg xmlns="http://www.w3.org/2000/svg" width="26.633" height="26.633" viewBox="0 0 26.633 26.633"><defs><style>.a{fill:#fff;stroke:#fff;stroke-width:0.3px;}</style></defs><g transform="translate(0.15 0.15)"><g transform="translate(2.194 4.828)"><path class="a" d="M44.583,88.8A2.612,2.612,0,0,0,42.7,88h-.135a2.612,2.612,0,0,0-1.882.8A2.414,2.414,0,0,0,40,90.585l.051,1.181a2.523,2.523,0,0,0,2.563,2.377h.033a2.523,2.523,0,0,0,2.563-2.377l.054-1.181A2.414,2.414,0,0,0,44.583,88.8Zm-.249,2.935a1.648,1.648,0,0,1-1.686,1.536h-.033a1.648,1.648,0,0,1-1.686-1.536l-.015-.359a3.961,3.961,0,0,0,2.294-.861,1.96,1.96,0,0,0,1.145.8Zm-.55-2.075a.44.44,0,0,0-.817-.163,2.7,2.7,0,0,1-2.087,1,1.548,1.548,0,0,1,.435-1.091,1.735,1.735,0,0,1,1.249-.527H42.7a1.735,1.735,0,0,1,1.249.527,1.547,1.547,0,0,1,.428.986A1.038,1.038,0,0,1,43.783,89.656Z" transform="translate(-39.997 -88)"/></g><g transform="translate(19.311 15.361)"><path class="a" d="M356.583,280.8a2.612,2.612,0,0,0-1.885-.8h-.135a2.612,2.612,0,0,0-1.882.8,2.414,2.414,0,0,0-.681,1.79l.051,1.181a2.523,2.523,0,0,0,2.563,2.377h.033a2.523,2.523,0,0,0,2.563-2.377l.054-1.181A2.414,2.414,0,0,0,356.583,280.8Zm-.2,1.754-.053,1.181a1.648,1.648,0,0,1-1.686,1.536h-.033a1.648,1.648,0,0,1-1.686-1.536l-.053-1.183a1.549,1.549,0,0,1,.439-1.143,1.735,1.735,0,0,1,1.249-.527h.135a1.735,1.735,0,0,1,1.249.527A1.549,1.549,0,0,1,356.386,282.55Z" transform="translate(-351.997 -280)"/></g><g transform="translate(0 6.041)"><path class="a" d="M13.558,110.458a1.215,1.215,0,0,0-1.689,0l-4.9,4.9a.439.439,0,0,1-.311.129H2.194A2.2,2.2,0,0,0,0,117.681v6.144a1.317,1.317,0,0,0,1.756,1.242v.514a.439.439,0,0,0,.439.439H7.461a.439.439,0,0,0,.439-.439v-7.116a.439.439,0,0,1,.118-.3l5.569-5.989A1.215,1.215,0,0,0,13.558,110.458Zm-.6,1.1,0,0-5.582,6a1.317,1.317,0,0,0-.351.9v6.677H2.633v-6.583a.439.439,0,1,0-.878,0v5.267a.439.439,0,1,1-.878,0v-6.144a1.317,1.317,0,0,1,1.317-1.317H6.658a1.307,1.307,0,0,0,.931-.386l4.9-4.9a.346.346,0,0,1,.477,0A.342.342,0,0,1,12.96,111.562Z" transform="translate(0 -110.117)"/></g><g transform="translate(4.389 12.728)"><path class="a" d="M80.439,232a.439.439,0,0,0-.439.439v5.267a.439.439,0,0,0,.878,0v-5.267A.439.439,0,0,0,80.439,232Z" transform="translate(-80 -232)"/></g><g transform="translate(9.655 15.361)"><path class="a" d="M180.58,280.8a2.612,2.612,0,0,0-1.882-.8h-.135a2.612,2.612,0,0,0-1.882.8,2.414,2.414,0,0,0-.681,1.79l.051,1.181a2.523,2.523,0,0,0,2.563,2.377h.033a2.523,2.523,0,0,0,2.563-2.377l.051-1.181A2.414,2.414,0,0,0,180.58,280.8Zm-.194,1.754-.053,1.181a1.648,1.648,0,0,1-1.686,1.536h-.033a1.648,1.648,0,0,1-1.686-1.536l-.053-1.183a1.549,1.549,0,0,1,.439-1.143,1.735,1.735,0,0,1,1.249-.527h.135a1.735,1.735,0,0,1,1.249.527A1.549,1.549,0,0,1,180.386,282.55Z" transform="translate(-175.997 -280)"/></g><g transform="translate(7.9 21.944)"><path class="a" d="M150.657,400h-4.535A2.123,2.123,0,0,0,144,402.121v1.829a.439.439,0,1,0,.878,0v-1.829a1.245,1.245,0,0,1,1.243-1.243h4.535a1.245,1.245,0,0,1,1.243,1.243v1.829a.439.439,0,1,0,.878,0v-1.829A2.123,2.123,0,0,0,150.657,400Z" transform="translate(-144 -400)"/></g><g transform="translate(17.555 21.944)"><path class="a" d="M326.657,400h-4.535A2.123,2.123,0,0,0,320,402.121v1.829a.439.439,0,1,0,.878,0v-1.829a1.245,1.245,0,0,1,1.243-1.243h4.535a1.245,1.245,0,0,1,1.243,1.243v1.829a.439.439,0,1,0,.878,0v-1.829A2.123,2.123,0,0,0,326.657,400Z" transform="translate(-320 -400)"/></g><g transform="translate(8.339)"><path class="a" d="M168.7,0h-15.4A1.307,1.307,0,0,0,152,1.317V7.9a.439.439,0,0,0,.878,0V2.633h16.239V13.167a.429.429,0,0,1-.417.439H153.722a.439.439,0,0,0,0,.878H168.7a1.307,1.307,0,0,0,1.295-1.317V1.317A1.307,1.307,0,0,0,168.7,0Zm.417,1.756H152.877V1.317a.429.429,0,0,1,.417-.439h15.4a.429.429,0,0,1,.417.439Z" transform="translate(-151.999)"/></g><g transform="translate(23.7 5.596)"><path class="a" d="M432.439,102a.439.439,0,0,0-.439.439v6.254a.439.439,0,1,0,.878,0v-6.254A.439.439,0,0,0,432.439,102Z" transform="translate(-432 -102)"/></g><g transform="translate(21.944 8.339)"><path class="a" d="M400.439,152a.439.439,0,0,0-.439.439v3.511a.439.439,0,1,0,.878,0v-3.511A.439.439,0,0,0,400.439,152Z" transform="translate(-400 -152)"/></g><g transform="translate(20.189 7.461)"><path class="a" d="M368.439,136a.439.439,0,0,0-.439.439v4.389a.439.439,0,0,0,.878,0v-4.389A.439.439,0,0,0,368.439,136Z" transform="translate(-368 -136)"/></g><g transform="translate(18.433 10.094)"><path class="a" d="M336.439,184a.439.439,0,0,0-.439.439v1.756a.439.439,0,1,0,.878,0v-1.756A.439.439,0,0,0,336.439,184Z" transform="translate(-336 -184)"/></g><g transform="translate(16.678 3.511)"><path class="a" d="M311.7,64.072a.439.439,0,0,0-.609.122l-1.5,2.247L308.213,65.4a.439.439,0,0,0-.658.155l-1.709,3.418-1.67,1.254a.439.439,0,0,0,.527.7l1.756-1.317a.443.443,0,0,0,.132-.155l1.52-3.041,1.333,1a.439.439,0,0,0,.614-.088l.014-.02,1.756-2.633A.439.439,0,0,0,311.7,64.072Z" transform="translate(-303.999 -63.998)"/></g><g transform="translate(10.094 3.511)"><path class="a" d="M189.706,64h-5.267a.439.439,0,1,0,0,.878h5.267a.439.439,0,1,0,0-.878Z" transform="translate(-184 -64)"/></g><g transform="translate(17.117 3.511)"><path class="a" d="M313.317,64h-.878a.439.439,0,0,0,0,.878h.878a.439.439,0,0,0,0-.878Z" transform="translate(-312 -64)"/></g></g></svg>