<svg xmlns="http://www.w3.org/2000/svg" width="59.954" height="64.416" viewBox="0 0 59.954 64.416"><defs><style>.a{fill:#fff;}</style></defs><g transform="translate(-17.731)"><path class="a" d="M69.932,28.3a.951.951,0,1,0,1.2-1.475,13.171,13.171,0,0,1-5.259-10.19c0-8.122,8.471-14.73,18.884-14.73A22.476,22.476,0,0,1,95.822,4.7a.951.951,0,0,0,.937-1.655A24.379,24.379,0,0,0,84.757,0,23.572,23.572,0,0,0,70.142,4.8a15.075,15.075,0,0,0-6.171,11.834A15.033,15.033,0,0,0,69.932,28.3Z" transform="translate(-40.422 0)"/><path class="a" d="M173.934,140.92a1.456,1.456,0,1,0-1.456-1.456A1.456,1.456,0,0,0,173.934,140.92Z" transform="translate(-135.278 -120.645)"/><path class="a" d="M264.207,140.92a1.456,1.456,0,1,0-1.456-1.456A1.456,1.456,0,0,0,264.207,140.92Z" transform="translate(-214.193 -120.645)"/><path class="a" d="M194.874,197.831a5.062,5.062,0,0,0,8.34,0,.951.951,0,0,0-1.566-1.08,3.16,3.16,0,0,1-5.208,0,.951.951,0,0,0-1.566,1.08Z" transform="translate(-154.709 -171.638)"/><path class="a" d="M74.2,85.372h-.189v-2.2a7.7,7.7,0,0,0-10.84-7.041,19.836,19.836,0,0,0-9.435-3.971V69.73a19.943,19.943,0,0,0,8.043-5.781,14.3,14.3,0,0,0,3.344-9.059,14.85,14.85,0,0,0-5.047-10.872.951.951,0,1,0-1.292,1.4,12.973,12.973,0,0,1,4.437,9.477c0,4.823-3.106,9.353-8.1,12.084a13.66,13.66,0,0,0,2.213-7.462V54.249a5.669,5.669,0,0,0-5.662-5.662H37a5.669,5.669,0,0,0-5.662,5.662v5.262a13.653,13.653,0,0,0,3.594,9.242v3.408a19.973,19.973,0,0,0-17.2,19.779v2.3a1.587,1.587,0,0,0,1.585,1.585h35.6v3.36a3.491,3.491,0,0,0,3.487,3.487h10.65a.951.951,0,0,0,0-1.9H58.4a1.587,1.587,0,0,1-1.585-1.585V88.859A1.587,1.587,0,0,1,58.4,87.274H74.2a1.587,1.587,0,0,1,1.585,1.585V99.187a1.587,1.587,0,0,1-1.585,1.585h-.506a.951.951,0,0,0,0,1.9H74.2a3.491,3.491,0,0,0,3.487-3.487V88.859A3.491,3.491,0,0,0,74.2,85.372Zm-2.091-2.2v2.2H69.833a19.9,19.9,0,0,0-5.011-7.815,5.807,5.807,0,0,1,7.286,5.615Zm-9.135-4.754a18.03,18.03,0,0,1,4.834,6.954H60.494v-2.2A5.8,5.8,0,0,1,62.972,78.418ZM36.837,70.47c.269.223,3.677,2.486,4.051,2.745a6.155,6.155,0,0,0,6.893,0c.391-.27,3.768-2.512,4.051-2.745v3.14a6.087,6.087,0,0,1-6.08,6.08H42.917a6.087,6.087,0,0,1-6.08-6.08V70.47ZM33.243,54.249A3.765,3.765,0,0,1,37,50.489H51.666a3.765,3.765,0,0,1,3.761,3.761v5.262a11.757,11.757,0,0,1-5.206,9.773l-3.5,2.352a4.26,4.26,0,0,1-4.771,0l-3.5-2.352a11.757,11.757,0,0,1-5.206-9.773Zm21.673,34.61v5.066H19.633V91.94A18.028,18.028,0,0,1,34.95,74.08a7.991,7.991,0,0,0,7.967,7.513h2.835a7.991,7.991,0,0,0,7.967-7.51A18,18,0,0,1,61.437,77.2a7.7,7.7,0,0,0-2.844,5.975v2.2H58.4a3.491,3.491,0,0,0-3.487,3.487Z" transform="translate(0 -38.259)"/></g></svg>