<svg xmlns="http://www.w3.org/2000/svg" width="26" height="26" viewBox="0 0 26 26"><defs><style>.a{fill:#fff;}</style></defs><path class="a" d="M17.752,8.25a8.888,8.888,0,1,0-9.5,9.5,8.887,8.887,0,1,0,9.5-9.5ZM1.523,8.887a7.364,7.364,0,0,1,14.7-.616,8.848,8.848,0,0,0-4.813,2.03L9.66,5.04a.762.762,0,0,0-1.445,0L5.777,12.353a.762.762,0,1,0,1.445.482l.368-1.1h2.457a8.84,8.84,0,0,0-1.777,4.5,7.367,7.367,0,0,1-6.747-7.34Zm8.253,1.32H8.1L8.938,7.69Zm7.337,14.27a7.363,7.363,0,1,1,7.363-7.363A7.372,7.372,0,0,1,17.113,24.477Z"/><path class="a" d="M259.793,265h-2.031a.762.762,0,0,0,0,1.523h1.23c-.119,1.307-.545,3.4-1.706,4.331a.762.762,0,1,0,.952,1.19c2.291-1.833,2.317-6.1,2.317-6.282A.762.762,0,0,0,259.793,265Z" transform="translate(-243.949 -251.543)"/><path class="a" d="M355.387,251.844h-.863v-2.082a.762.762,0,0,0-1.523,0v7.313a.762.762,0,1,0,1.523,0v-3.707h.863a.762.762,0,0,0,0-1.523Z" transform="translate(-335.074 -236.355)"/><path class="a" d="M369.762,34.523a3.3,3.3,0,0,1,3.3,3.3.762.762,0,0,0,1.523,0A4.83,4.83,0,0,0,369.762,33a.762.762,0,0,0,0,1.523Z" transform="translate(-350.262 -31.324)"/><path class="a" d="M37.824,373.063a3.3,3.3,0,0,1-3.3-3.3.762.762,0,0,0-1.523,0,4.83,4.83,0,0,0,4.824,4.824.762.762,0,0,0,0-1.523Z" transform="translate(-31.324 -350.262)"/></svg>